<svg xmlns="http://www.w3.org/2000/svg" width="13.755" height="13.755" viewBox="0 0 13.755 13.755"><defs><style>.a{fill:#efefec;}</style></defs><path class="a" d="M9.959,0H3.8A3.8,3.8,0,0,0,0,3.8V9.959a3.8,3.8,0,0,0,3.8,3.8H9.959a3.8,3.8,0,0,0,3.8-3.8V3.8A3.8,3.8,0,0,0,9.959,0Zm2.576,9.959a2.578,2.578,0,0,1-2.575,2.575H3.8A2.578,2.578,0,0,1,1.22,9.959V3.8A2.578,2.578,0,0,1,3.8,1.22H9.959A2.578,2.578,0,0,1,12.534,3.8V9.959Z"/><path class="a" d="M44.512,40.97a3.544,3.544,0,1,0,3.544,3.544A3.548,3.548,0,0,0,44.512,40.97Zm0,5.868a2.324,2.324,0,1,1,2.324-2.324A2.326,2.326,0,0,1,44.512,46.838Z" transform="translate(-37.635 -37.637)"/><path class="a" d="M119.816,28.251a.894.894,0,1,0,.633.262A.9.9,0,0,0,119.816,28.251Z" transform="translate(-109.246 -25.953)"/></svg>