<svg xmlns="http://www.w3.org/2000/svg" width="13.476" height="13.476" viewBox="0 0 13.476 13.476"><defs><style>.a{fill:#efefec;}</style></defs><path class="a" d="M11.458,33.958A6.68,6.68,0,0,0,.948,42.017L0,45.476l3.54-.929a6.657,6.657,0,0,0,3.192.812h0a6.635,6.635,0,0,0,4.723-11.4ZM6.735,44.234a5.541,5.541,0,0,1-2.828-.773l-.2-.12-2.1.55.559-2.048-.132-.211a5.561,5.561,0,1,1,10.315-2.951A5.612,5.612,0,0,1,6.735,44.234Zm3.044-4.157c-.165-.084-.987-.487-1.14-.541s-.265-.084-.376.084-.43.541-.529.656-.2.126-.361.042A4.542,4.542,0,0,1,5.1,38.332c-.171-.295.171-.274.49-.911a.309.309,0,0,0-.015-.292c-.042-.084-.376-.905-.514-1.239s-.274-.28-.376-.286-.208-.006-.319-.006a.618.618,0,0,0-.445.208A1.875,1.875,0,0,0,3.339,37.2a3.269,3.269,0,0,0,.68,1.727A7.456,7.456,0,0,0,6.87,41.445a3.265,3.265,0,0,0,2,.418A1.709,1.709,0,0,0,10,41.069a1.4,1.4,0,0,0,.1-.794C10.056,40.2,9.945,40.158,9.779,40.077Z" transform="translate(0 -32)"/></svg>