<svg xmlns="http://www.w3.org/2000/svg" width="17.32" height="12.178" viewBox="0 0 17.32 12.178"><defs><style>.a{fill:#efefec;}</style></defs><path class="a" d="M31.891,65.905a2.176,2.176,0,0,0-1.531-1.541A51.428,51.428,0,0,0,23.593,64a51.428,51.428,0,0,0-6.767.364,2.176,2.176,0,0,0-1.531,1.541,24.5,24.5,0,0,0,0,8.392,2.144,2.144,0,0,0,1.531,1.517,51.429,51.429,0,0,0,6.767.364,51.429,51.429,0,0,0,6.767-.364A2.144,2.144,0,0,0,31.891,74.3a24.5,24.5,0,0,0,0-8.392ZM21.821,72.676v-5.15L26.348,70.1Z" transform="translate(-14.933 -64)"/></svg>