<svg xmlns="http://www.w3.org/2000/svg" width="14.602" height="10.267" viewBox="0 0 14.602 10.267"><defs><style>.a{fill:#72c7d8;}</style></defs><path class="a" d="M29.23,65.606a1.835,1.835,0,0,0-1.291-1.3,43.358,43.358,0,0,0-5.7-.307,43.358,43.358,0,0,0-5.7.307,1.835,1.835,0,0,0-1.291,1.3,20.658,20.658,0,0,0,0,7.075,1.807,1.807,0,0,0,1.291,1.279,43.359,43.359,0,0,0,5.7.307,43.36,43.36,0,0,0,5.7-.307,1.807,1.807,0,0,0,1.291-1.279,20.659,20.659,0,0,0,0-7.075Zm-8.489,5.709V66.973l3.816,2.171Z" transform="translate(-14.933 -64)"/></svg>